<?xml version="1.0" encoding="utf-8"?>
<!-- Generator: Adobe Illustrator 23.0.3, SVG Export Plug-In . SVG Version: 6.00 Build 0)  -->
<svg version="1.1" id="Capa_1" xmlns="http://www.w3.org/2000/svg" xmlns:xlink="http://www.w3.org/1999/xlink" x="0px" y="0px"
	 viewBox="0 0 1200 1200" enable-background="new 0 0 1200 1200" xml:space="preserve">
<g>
	<path d="M773.179,639.789c36.699-8.216,76.914-26.46,105.35-51.242c32.695-28.494,47.621-66.406,53.045-108.521
		c0.729-5.665-9.076-7.033-10.042-1.359c-6.902,40.544-23.043,76.041-55.651,102.381c-29.005,23.43-65.432,30.388-96.762,49.112
		C763.898,633.28,767.396,641.083,773.179,639.789z"/>
	<path d="M648.174,360.475c23.189-19.242,54.668-20.717,77.913-40.159c16.939-14.167,35.237-40.031,17.39-60.919
		c-13.844-16.203-40.973-17.943-59.873-10.126c-16.38,2.385-32.984,8.08-47.629,14.038c-21.751,8.849-42.119,20.268-60.535,34.878
		c-34.01,26.981-62.157,68.097-59.576,113.322c1.111,19.462,9.809,39.645,30.978,43.268c22.351,3.824,38.617-11.93,50.309-28.915
		C613.056,402.759,626.145,378.754,648.174,360.475z M594.921,401.102c-9.012,14.099-20.162,36.829-39.261,37.957
		c-21.536,1.271-24.126-23.51-22.723-39.503c3.262-37.178,27.495-68.621,56.208-90.75c16.733-12.897,35.582-23.514,55.053-31.676
		c17.602-7.378,35.551-11.516,53.684-16.72c12.924-0.257,27.327,1.314,34.484,10.099c15.381,18.88-18.338,44.359-32.763,51.416
		c-20.946,10.247-42.607,13.717-61.296,28.684C620.87,364.573,606.896,382.365,594.921,401.102z"/>
	<path d="M560.756,482.709c-1.939-0.868-3.96-1.579-5.987-2.192c-8.39-2.537-17.223-3.604-25.976-3.137
		c-5.35,0.286-10.879,1.223-15.266,4.302c-17.027,11.956-10.079,44.272,0.603,57.907c5.446,6.951,13.579,12.105,22.395,12.607
		c15.157,0.862,27.974-11.785,34.48-25.502c5.909-12.459,7.67-29.002-2.162-38.669C566.523,485.744,563.735,484.042,560.756,482.709
		z M553.116,530.415c-18.293,21.02-36.782-5.076-37.784-24.566c-0.688-13.386,8.793-13.181,18.783-12.854
		c6.135,0.2,12.452,0.719,18.408,2.286C569.508,499.749,561.299,521.01,553.116,530.415z"/>
	<path d="M478.641,185.843c1.703-7.758-10.051-11.084-11.957-3.296c-3.488,16.093-9.555,29.69-23.571,35.945
		c-4.377-1.216-9.023-1.141-13.752,0.897c-4.8,2.068-2.639,8.707,1.324,10.128c6.062,2.174,11.362,2.549,16.343,7.054
		c4.551,4.116,7.677,9.754,10.082,15.317c3.761,8.701,6.023,18.408,5.888,27.974c-0.205,2.007-0.353,4.038-0.391,6.112
		c-0.134,7.39,12.155,9.479,13.264,1.795c0.086-0.596,0.147-1.196,0.217-1.795c0.008,0,0.016,0,0.024,0
		c0-0.098,0.01-0.193,0.011-0.291c0.242-2.149,0.385-4.311,0.425-6.482c2.246-18.912,13.707-33.508,32.877-39.435
		c7.941-2.455,4.462-13.213-3.339-12.111c-24.139,3.409-31.997-20.26-27.899-39.84C478.347,187.151,478.498,186.493,478.641,185.843
		z M486.694,237.157c-5.814,4.241-10.668,9.409-14.45,15.343c-1.545-4.5-3.465-8.855-5.749-12.959
		c-2.607-4.686-6.26-9.578-10.61-13.547c4.527-3.069,8.37-7.358,11.576-12.271C470.73,224.06,477.178,232.712,486.694,237.157z"/>
	<path d="M1036.819,224.513c1.909-7.751-9.673-10.949-11.952-3.295c-5.72,22.644-16.743,40.361-37.546,47.374
		c-5.867-1.756-12.036-2.005-18.242-0.003c-4.98,1.607-5.555,9.35,0,10.687c1.235,0.297,2.459,0.558,3.677,0.808
		c0.397,0.189,0.836,0.346,1.366,0.43c0.666,0.105,1.32,0.171,1.976,0.248c5.773,1.16,11.323,2.412,16.562,5.919
		c7.235,4.843,12.693,11.954,16.87,19.5c5.789,10.459,10.236,23.541,10.47,36.046c-0.51,3.438-0.797,6.987-0.833,10.647
		c-0.072,7.397,11.945,9.478,13.275,1.797c0.649-3.747,0.967-7.557,0.993-11.387c3.993-26.64,24.665-44.254,51.313-51.109
		c6.649-1.711,5.504-13.284-1.67-12.344c-15.862,2.077-32.406-0.524-42.114-14.549c-7.525-10.871-8.177-24.429-5.184-36.9
		C1036.149,227.088,1036.502,225.798,1036.819,224.513z M1056.584,289.955c-11.446,6.616-20.917,15.589-27.472,26.569
		c-2.258-6.963-5.304-13.644-8.959-19.743c-4.359-7.275-10.783-14.936-18.39-20.643c8.972-4.689,16.384-12.324,22.199-21.307
		C1028.358,271.35,1040.122,284.387,1056.584,289.955z"/>
	<path d="M1096.904,392.999c-3.969,16.111-10.999,27.3-24.764,32.876c-4.61-1.199-9.454-1.095-14.294,0.975
		c-4.843,2.071-2.594,8.677,1.323,10.128c5.303,1.964,10.763,2.08,15.604,5.337c4.962,3.339,8.603,8.434,11.38,13.643
		c4.042,7.582,7.095,17.126,7.077,26.103c-0.288,2.199-0.502,4.435-0.551,6.749c-0.157,7.412,12.047,9.462,13.273,1.796
		c0.095-0.596,0.163-1.197,0.239-1.797c0.001,0,0.001,0,0.002,0c0-0.009,0.001-0.017,0.001-0.026c0.251-1.987,0.399-3.989,0.444-6
		c2.456-18.694,15.79-31.095,34.507-36.269c6.57-1.816,5.559-13.254-1.67-12.342c-24.111,3.04-37.095-15.251-30.617-37.879
		C1110.756,388.553,1099.032,385.293,1096.904,392.999z M1117.157,443.602c-5.884,3.947-10.903,8.791-14.83,14.457
		c-1.668-4.455-3.773-8.729-6.274-12.686c-2.666-4.218-6.227-8.467-10.349-11.992c4.533-2.919,8.464-6.944,11.78-11.579
		C1100.912,431.51,1107.748,439.354,1117.157,443.602z"/>
	<path d="M378.174,293.989c1.909-7.751-9.673-10.949-11.952-3.295c-5.72,22.644-16.743,40.361-37.546,47.374
		c-5.867-1.756-12.036-2.005-18.242-0.003c-4.98,1.607-5.555,9.35,0,10.687c1.235,0.297,2.459,0.558,3.677,0.808
		c0.397,0.189,0.836,0.346,1.366,0.43c0.666,0.105,1.319,0.171,1.976,0.248c5.773,1.16,11.323,2.412,16.562,5.919
		c7.235,4.843,12.693,11.954,16.87,19.5c5.789,10.459,10.236,23.54,10.471,36.045c-0.51,3.439-0.797,6.987-0.833,10.648
		c-0.072,7.397,11.945,9.478,13.275,1.797c0.649-3.747,0.967-7.557,0.993-11.387c3.993-26.64,24.665-44.254,51.313-51.11
		c6.649-1.71,5.504-13.284-1.67-12.344c-15.862,2.078-32.406-0.524-42.114-14.549c-7.525-10.871-8.177-24.429-5.184-36.9
		C377.505,296.565,377.858,295.274,378.174,293.989z M397.94,359.431c-11.446,6.616-20.917,15.589-27.472,26.569
		c-2.258-6.963-5.304-13.644-8.959-19.743c-4.359-7.275-10.783-14.935-18.39-20.643c8.972-4.689,16.384-12.324,22.199-21.307
		C369.714,340.826,381.478,353.863,397.94,359.431z"/>
	<path d="M1149.006,872.768c-2.875-8.866-11.355-16.775-16.992-23.398c-10.492-12.328-21.875-23.877-32.012-36.512
		c3.919-5.556,6.289-12.742,6.438-18.274c0.39-14.588-7.401-31.141-21.132-37.351c-11.894-5.38-26.041-2.165-32.834,8.398
		c-13.191-24.298-43.887-57.93-48.921-64.854c-15.818-21.758-32.701-42.631-49.885-63.336c-3.182-3.835-13.105-16.915-21.635-20.633
		c48.574-64.008,69.096-152.82,52.193-229.176c-13.157-59.43-47.573-123.155-99.445-156.959
		c-29.392-19.154-65.96-29.638-100.437-34.224c-54.359-7.231-114.542,7.901-163.963,29.74
		c-27.475,12.141-52.636,25.57-74.754,46.212c-39.605,36.961-73.198,88.036-85.042,141.248c-6.617,29.727-7.697,61.234-3.571,92.166
		c-22.802-6.856-42.407-20.809-64.881-28.628c-5.991-2.084-16.772-0.801-12.485,8.306c6.631,14.089,17.217,26.52,28.682,37.052
		c4.615,12.94,14.994,23.878,25.692,32.619c14.263,11.654,30.301,22.22,46.716,31.001c15.784,32.969,38.559,62.178,67.953,83.764
		c-1.138,1.211-2.228,2.508-3.494,3.757c-4.513,4.458-9.8,8.05-15.24,11.273c-10.307,6.107-21.441,10.677-32.995,13.791
		c-1.57-16.729-6.399-33.165-12.686-45.545c-7.54-14.849-19.629-28.634-32.878-38.65c-10.923-8.257-24.89-10.604-36.132-18.19
		c-14.218-9.595-15.078-26.785-25.919-39.408c-3.868-4.504-12.145,0.275-10.109,5.885c10.499,28.935,16.968,65.3,37.764,89.322
		c2.962,14.077,4.927,28.345,6.9,42.59c1.236,8.919,2.697,17.786,4.238,26.643c-13.889-4.833-29.108-10.059-36.513-22.169
		c-6.934-11.341-5.736-29.327-6.761-42.252c-1.069-13.469-2.271-26.945-5.416-40.115c-6.455-27.025-12.926-55.078-24.314-80.522
		c-8.276-18.489-24.761-39.552-44.393-46.693c-0.514-0.187-1.005-0.217-1.479-0.177c-5.72-14.394-12.362-28.468-19.623-42.042
		c-4.154-7.764-14.774-3.452-15.407,4.173c-1.836,22.089,4.91,44.134,10.873,65.143c6.754,23.793,10.585,48.292,15.135,72.571
		c4.479,23.904,10.207,47.544,15.157,71.351c0.364,1.751,0.688,3.503,1.027,5.254c-7.36-12.748-15.913-25.118-22.997-37.452
		c-9.673-16.842-19.718-33.437-28.913-50.543c-11.5-21.396-30.784-58.294-60.632-50.66c-0.454,0.116-0.848,0.294-1.215,0.497
		c-4.917-7.805-22.082-34.692-25.501-40.865c-2.993-5.403-12.146-1.77-10.128,4.27c11.437,34.221,18.568,72.79,38.458,103.504
		c12.99,32.318,30.002,63.506,45.282,94.567c1.665,3.383,3.312,6.819,4.956,10.278c-4.012-0.33-7.962-0.713-11.994-2.176
		c-6.851-2.485-13.113-6.582-18.9-10.957c-13.495-10.204-25.101-22.707-37.914-33.714c-20.903-17.958-51.379-35.446-76.609-14.63
		c-0.155,0.128-0.277,0.272-0.408,0.411c-10.956-6.196-23.397-10.794-36.106-10.993c-6.015-0.094-12.977,0.571-18.461,3.264
		c-3.055,1.5-9.115,6.088-2.068,8.61c24.438,8.747,46.107,24.303,65.677,41.038c14.921,12.76,31.498,22.374,45.695,36.16
		c13.193,12.81,27.014,25.057,41.101,36.876c15.279,12.82,31.716,24.053,47.439,36.299c13.835,10.776,27.144,24.469,42.924,32.377
		c32.137,16.106,68.792,5.844,103.995,4.396c13.729,2.686,27.451,5.401,40.887,9.148c3.022,0.843,5.449,0.067,7.107-1.5
		c5.524,2.919,11.073,5.79,16.667,8.57c25.172,12.507,56.076,28.878,84.656,29.909c2.037,0.073,3.617-0.467,4.808-1.356
		c0.324,0.07,0.639,0.149,0.992,0.185c26.828,2.745,55.352-4.408,81.182-10.943c28.324-7.165,56.455-15.707,85.579-19.045
		c29.469-3.378,59.058-2.136,88.64-2.538c15.264-0.207,31.351-1.25,47.111-0.352c5.102,9.783,12.102,19.099,17.904,27.778
		c1.296,1.939,2.589,3.902,3.883,5.873c-0.047,0.031-0.095,0.047-0.141,0.079c-11.006,7.625-14.197,24.212-11.061,36.576
		c2.869,11.311,13.424,23.423,25.698,23.788c6.817,19.191,26.366,29.583,45.059,28.665c3.137,10.232,10.019,19.536,16.368,27.839
		c7.497,9.805,15.766,18.906,23.884,28.197c1.765,2.02,3.779,4.177,6.442,4.499c1.701,0.206,3.387-0.388,4.998-0.972
		c17.494-6.341,34.82-12.817,51.558-21.005c6.948-3.399,50.294-22.584,50.294-30.438c29.468-22.068,55.144-51.335,57.353-89.694
		C1150.109,877.358,1149.74,875.032,1149.006,872.768z M1042.277,885.021c2.235,11.505-1.681,21.713-9.427,31.591
		c-7.842,10-19.589,16.445-32.333,17.134c-21.499,1.162-29.746-20.215-28.41-38.57c1.048-14.398,8.69-27.528,21.083-35.056
		c13.237-8.041,31.699-10.435,42.026,3.447C1039.774,869.691,1040.862,877.732,1042.277,885.021z M1057.127,872.466
		c-2.547-11.027-8.131-19.56-15.539-25.301c-0.04-0.342-0.114-0.692-0.248-1.054c-9.429-25.29,33.62-41.36,43.805-15.993
		C1093.173,850.114,1078.011,875.692,1057.127,872.466z M1061.766,780.907c1.088-9.471,8.347-15.131,17.846-10.293
		c7.572,3.856,11.498,13.982,11.545,22.06c0.023,3.923-0.727,8.249-3.547,11.2c-1.15,1.202-2.435,2.026-3.74,2.784
		c-5.688-2.773-12.091-3.773-18.475-3.291C1062.915,796.173,1060.9,788.437,1061.766,780.907z M929.396,628.128
		c-0.239,0.107-0.467,0.185-0.688,0.247C928.943,628.305,929.175,628.227,929.396,628.128z M418.38,509.581
		c13.702,0.735,26.347,8.17,40.103,5.883c2.966,17.478,7.613,34.682,13.907,51.196C448.364,551.743,419.232,536.26,418.38,509.581z
		 M509.851,597.883c-25.91-42.065-37.98-92.216-35.581-141.458c2.845-58.376,29.834-109.048,67.629-152.595
		c19.41-22.365,42.232-40.893,68.845-54.034c25.315-12.5,47.717-23.835,75.754-29.215c59.558-11.428,121.163-9.85,175.935,18.632
		c49.001,25.584,77.786,76.377,95.855,126.707c32.124,89.48,2.271,201.724-66.106,266.935
		c-34.247,32.661-79.942,49.897-125.96,57.918c-48.499,8.453-99.928,6.751-147.036-8.069
		C573.051,668.191,535.255,639.127,509.851,597.883z M222.577,596.187c5.153-16.025-0.754-32.788-8.047-47.26
		c-1.897-3.763-3.905-7.565-6.02-11.347c24.837,2.899,38.34,40.952,48.255,59.639c8.828,16.637,18.362,33.061,27.749,49.393
		c9.736,16.939,19.963,36.839,36.241,48.346c0.143,0.101,0.294,0.175,0.443,0.254c1.83,13.296,3.348,26.631,5.012,40.039
		c0.201,1.617,0.937,2.792,1.906,3.549c9.247,30.111,39.385,50.231,66.928,65.844c3.137,1.778,6.277,3.558,9.414,5.339
		c-9.352-1.84-18.718-3.582-27.904-5.734c-25.966-6.083-49.095-11.775-64.762-34.852c-18.986-27.965-32.572-60.528-47.871-90.597
		C250.103,651.642,237.797,622.879,222.577,596.187z M302.502,807.717c-16.481-8.7-30.728-23.216-45.561-34.459
		c-16.498-12.504-33.618-23.909-49.558-37.174c-13.893-11.562-27.28-23.58-40.613-35.771c-7.863-7.19-15.861-14.006-24.889-19.188
		c-0.909-14.042-9.666-26.503-21.763-35.896c12.829-3.923,23.898-4.425,36.657,2.72c13.709,7.676,25.066,18.968,36.446,29.629
		c16.024,15.01,43.661,43.643,68.707,35.087c11.84,25.261,24.1,51.231,40.674,72.818c12.249,15.953,28.553,23.734,46.613,29.239
		C332.757,815.688,316.211,814.953,302.502,807.717z M475.51,828.833c-22.251-10.731-43.847-22.77-65.652-34.366
		c-31.524-16.765-69.56-37.266-73.209-76.483c0.462-41.383-12.084-83.535-19.521-123.595c-1.312-7.067-2.566-14.145-3.822-21.222
		c18.911-11.346,9.634-43.249,4.521-59.636c-0.648-2.076-1.342-4.142-2.033-6.208c4.539,4.439,9.434,8.606,13.529,13.358
		c10.051,11.661,15.157,25.663,19.468,40.238c8.523,28.814,16.613,59.339,18.691,89.348c1.482,21.396-0.682,49.352,15.886,65.626
		c12.056,11.842,31.208,20.728,48.13,24.446c2.469,14.613,3.207,30.683,7.952,44.773c-0.149,1.445,0.269,3.007,1.532,4.441
		c0.082,0.093,0.169,0.178,0.25,0.27c0.11,0.26,0.207,0.528,0.321,0.786c0.575,1.313,1.618,2.161,2.841,2.62
		c17.598,18.042,40.542,28.337,60.052,44.176c3.179,2.581,6.287,5.243,9.38,7.923c-0.215-0.079-0.434-0.147-0.648-0.227
		C500.364,840.303,487.832,834.775,475.51,828.833z M550.11,854.713C550.629,855.122,550.724,855.371,550.11,854.713L550.11,854.713
		z M875.595,840.618c6.241,1.137,12.361,2.745,18.27,5.065c6.769,2.658,10.632-7.838,4.811-11.412
		c-6.164-3.785-12.78-6.796-19.679-8.968c-5.958-1.875-11.99-3.719-18.2-4.542c-6.656-0.882-12.814,0.514-19.412,0.381
		c-6.733-0.137-13.476-0.746-20.212-0.514c-30.677,1.055-61.411-0.3-92.009,2.728c-28.757,2.846-56.524,10.092-84.34,17.627
		c-29.894,8.097-58.923,13.349-89.601,17.182c-0.593,0.074-1.135,0.21-1.646,0.379c-0.204-0.166-0.406-0.335-0.629-0.484
		c-0.641-1.346-1.534-2.542-2.632-3.38c-0.182-0.138-0.363-0.228-0.545-0.349c-0.073-0.083-0.12-0.131-0.205-0.231
		c-0.862-1.008-2.317-1.82-3.355-2.652c-3.191-2.554-6.31-5.186-9.4-7.862c-9.154-7.928-18.297-15.843-28.05-23.038
		c-17.533-12.935-38.225-21.679-55.237-35.291c1.861-16.635-3.447-34.937-6.378-51.117c-2.753-15.2-5.315-30.374-7.588-45.653
		c-1.632-10.97-3.344-21.959-5.538-32.844c0.734-1.151,1.195-2.519,1.217-4.074c0.169-11.961-2.615-22.408-8.244-32.25
		c1.364,0.551,2.727,1.107,4.076,1.685c14.427,6.188,25.771,19.348,34.168,32.296c9.072,13.987,13.548,31.022,14.426,47.583
		c0.919,17.359-4.912,32.892-6.13,49.836c-0.363,5.051,7.014,8.5,10.497,4.678c8.726,7.702,22.591,12.913,31.253,17.477
		c15.657,8.249,32.236,15.712,49.233,20.741c37.013,10.951,68.622-5.221,101.668-20.694c31.838-14.908,63.061-29.205,97.763-36.043
		c34.722-6.843,67.061-5.353,100.864,4.581c7.079,2.08,11.164-8.02,4.962-11.769c-25.402-15.352-59.891-14.797-88.355-11.261
		c-31.68,3.935-61.749,13.392-90.832,26.337c-17.987,8.006-35.618,16.794-53.67,24.655c-19.734,8.593-38.417,15.988-60.2,11.265
		c-18.635-4.04-36.739-12.535-53.618-21.183c-8.385-4.296-20.353-13.416-31.531-16.778c3.75-8.821,5.565-18.877,5.883-29.259
		c0.546-0.002,1.114-0.057,1.707-0.183c14.776-3.141,28.983-8.889,41.787-16.933c6.719-4.221,16.378-10.124,20.535-17.835
		c4.331,2.686,8.749,5.264,13.331,7.625c47.577,24.516,103.146,32.359,156.146,28.844c51.457-3.412,105.277-17.253,148.13-46.899
		c16.383-11.334,31.152-24.991,44.194-40.342c0.7,0.37,1.473,0.628,2.27,0.766c0.129,0.273,0.349,0.689,0.683,1.333
		c0.515,0.991,2.964,2.699,3.676,3.403c2.74,2.705,5.256,5.656,7.773,8.566c4.974,5.751,9.639,11.751,14.469,17.62
		c15.035,18.27,29.603,36.839,44.488,55.2c11.056,13.638,23.273,26.282,33.757,40.385c4.854,6.531,9.89,13.35,13.32,20.771
		c1.765,3.818,2.025,8.861,4.428,12.289c0.601,6.278,2.453,12.509,5.443,17.863c-15.025,5.462-26.896,18.714-24.109,34.83
		c-0.686-3.967-21.61-1.522-24.296-0.843c-11.893,3.008-25.495,7.808-33.835,17.147c-3.922,4.392-6.952,9.544-9.246,14.951
		c-0.953,2.246-6.465,14.981-4.706,16.91c-13.587-14.895-33.685-12.353-48.059-1.412c-7.189-10.223-15.311-19.944-22.557-30.081
		C882.972,852.12,879.359,846.322,875.595,840.618z M881.079,904.343c-1.864-8.579,1.332-14.741,5.511-21.471
		c3.769,5.582,7.674,11.077,11.895,16.222c-3.604,5.47-5.968,11.686-6.532,18.236C886.882,914.731,882.711,911.855,881.079,904.343z
		 M908.491,927.62c-3.565-8.954-1.759-18.09,3.942-24.876c0.139-0.139,0.263-0.287,0.392-0.435c1.772-2.016,3.877-3.823,6.313-5.331
		c11.363-7.031,22.742-4.941,33.964,0.867c1.084,0.561,2.337,0.583,3.497,0.25c-0.288,11.307,2.042,22.506,7.266,31.543
		c-1.202,0.56-2.307,1.513-3.167,2.979C948.823,952.869,917.229,949.565,908.491,927.62z M987.305,1004.876
		c-11.44-15.558-25.82-28.867-33.294-46.945c7.69-3.278,14.445-8.96,19.066-17.264c17.441,14.303,44.058,9.55,61.269-3.47
		c14.822-11.212,23.41-29.13,24.286-47.481c24.589,4.225,44.622-23.997,44.026-50.195c10.718,13.846,24.605,25.966,33.684,40.493
		C1123.064,947.585,1047.387,984.866,987.305,1004.876z"/>
</g>
</svg>
